<svg xmlns="http://www.w3.org/2000/svg" viewBox="0 0 760 330" font-family="'Helvetica Neue', Arial, 'AppleSDGothicNeo', sans-serif">
<defs><marker id="ar" viewBox="0 0 10 10" refX="8.5" refY="5" markerWidth="7" markerHeight="7" orient="auto-start-reverse"><path d="M0,0 L10,5 L0,10 z" fill="#2A2A2A"/></marker><marker id="arr" viewBox="0 0 10 10" refX="8.5" refY="5" markerWidth="7" markerHeight="7" orient="auto-start-reverse"><path d="M0,0 L10,5 L0,10 z" fill="#B5495B"/></marker></defs>
<rect x="2" y="2" width="756" height="326" rx="14" fill="#FBF7EF" stroke="#E7DFCB"/>
<text x="380.0" y="34" text-anchor="middle" font-size="14" fill="#7A7268" font-style="italic">이미 진 가지는 끝까지 볼 필요가 없다 — 결과는 같고 속도는 빠르다</text>
<line x1="380" y1="94" x2="210" y2="140" stroke="#7A7268" stroke-width="1.5"/>
<line x1="380" y1="94" x2="550" y2="140" stroke="#7A7268" stroke-width="1.5"/>
<line x1="210" y1="180" x2="120" y2="237" stroke="#7A7268" stroke-width="1.5"/>
<line x1="210" y1="180" x2="210" y2="237" stroke="#7A7268" stroke-width="1.5"/>
<line x1="210" y1="180" x2="300" y2="237" stroke="#7A7268" stroke-width="1.5"/>
<line x1="550" y1="180" x2="470" y2="237" stroke="#7A7268" stroke-width="1.5"/>
<line x1="550" y1="180" x2="550" y2="237" stroke="#B5495B" stroke-width="1.5" stroke-dasharray="4,3"/>
<line x1="550" y1="180" x2="630" y2="237" stroke="#B5495B" stroke-width="1.5" stroke-dasharray="4,3"/>
<circle cx="380" cy="72" r="21" fill="#FFFFFF" stroke="#B5651D" stroke-width="2"/>
<text x="380" y="77" text-anchor="middle" font-size="13" fill="#2A2A2A" font-weight="bold">3</text>
<circle cx="210" cy="160" r="21" fill="#FFFFFF" stroke="#3B6EA5" stroke-width="2"/>
<text x="210" y="165" text-anchor="middle" font-size="13" fill="#2A2A2A" font-weight="bold">3</text>
<circle cx="550" cy="160" r="21" fill="#FFFFFF" stroke="#3B6EA5" stroke-width="2"/>
<text x="550" y="165" text-anchor="middle" font-size="13" fill="#2A2A2A" font-weight="bold">≤2</text>
<rect x="105" y="240" width="30" height="30" rx="6" fill="#F3E7D6" stroke="#7A7268" stroke-width="1.3"/>
<text x="120" y="260" text-anchor="middle" font-size="13" fill="#2A2A2A">3</text>
<rect x="195" y="240" width="30" height="30" rx="6" fill="#F3E7D6" stroke="#7A7268" stroke-width="1.3"/>
<text x="210" y="260" text-anchor="middle" font-size="13" fill="#2A2A2A">5</text>
<rect x="285" y="240" width="30" height="30" rx="6" fill="#F3E7D6" stroke="#7A7268" stroke-width="1.3"/>
<text x="300" y="260" text-anchor="middle" font-size="13" fill="#2A2A2A">6</text>
<rect x="455" y="240" width="30" height="30" rx="6" fill="#F3E7D6" stroke="#7A7268" stroke-width="1.3"/>
<text x="470" y="260" text-anchor="middle" font-size="13" fill="#2A2A2A">2</text>
<rect x="535" y="240" width="30" height="30" rx="6" fill="#F3DADE" stroke="#B5495B" stroke-width="1.3"/>
<text x="550" y="260" text-anchor="middle" font-size="13" fill="#B5495B">×</text>
<rect x="615" y="240" width="30" height="30" rx="6" fill="#F3DADE" stroke="#B5495B" stroke-width="1.3"/>
<text x="630" y="260" text-anchor="middle" font-size="13" fill="#B5495B">×</text>
<text x="410" y="76" font-size="11.5" fill="#B5651D" font-weight="bold">MAX</text>
<text x="150" y="150" font-size="11.5" fill="#3B6EA5" font-weight="bold">MIN</text>
<text x="640" y="200" font-size="11" fill="#B5495B" font-weight="bold">가지치기!</text>
<text x="380.0" y="318" text-anchor="middle" font-size="11.5" fill="#7A7268">오른쪽 MIN이 이미 2를 봤다 → 왼쪽 결과 3보다 작을 게 뻔하니 나머지(×)는 안 본다</text>
</svg>