<svg xmlns="http://www.w3.org/2000/svg" viewBox="0 0 760 360" font-family="'Helvetica Neue', Arial, 'AppleSDGothicNeo', sans-serif">
<defs><marker id="ar" viewBox="0 0 10 10" refX="8.5" refY="5" markerWidth="7" markerHeight="7" orient="auto-start-reverse"><path d="M0,0 L10,5 L0,10 z" fill="#2A2A2A"/></marker></defs>
<rect x="2" y="2" width="756" height="356" rx="14" fill="#FBF7EF" stroke="#E7DFCB"/>
<text x="380.0" y="34" text-anchor="middle" font-size="14" fill="#7A7268" font-style="italic">작은 필터를 이미지 위로 미끄러뜨려 '모서리' 같은 특징을 뽑아낸다</text>
<rect x="60" y="90" width="32" height="32" fill="#EFE7D5" stroke="#2A2A2A" stroke-width="0.7"/>
<rect x="92" y="90" width="32" height="32" fill="#EFE7D5" stroke="#2A2A2A" stroke-width="0.7"/>
<rect x="124" y="90" width="32" height="32" fill="#3a3a44" stroke="#2A2A2A" stroke-width="0.7"/>
<rect x="156" y="90" width="32" height="32" fill="#3a3a44" stroke="#2A2A2A" stroke-width="0.7"/>
<rect x="188" y="90" width="32" height="32" fill="#EFE7D5" stroke="#2A2A2A" stroke-width="0.7"/>
<rect x="220" y="90" width="32" height="32" fill="#EFE7D5" stroke="#2A2A2A" stroke-width="0.7"/>
<rect x="60" y="122" width="32" height="32" fill="#EFE7D5" stroke="#2A2A2A" stroke-width="0.7"/>
<rect x="92" y="122" width="32" height="32" fill="#EFE7D5" stroke="#2A2A2A" stroke-width="0.7"/>
<rect x="124" y="122" width="32" height="32" fill="#3a3a44" stroke="#2A2A2A" stroke-width="0.7"/>
<rect x="156" y="122" width="32" height="32" fill="#3a3a44" stroke="#2A2A2A" stroke-width="0.7"/>
<rect x="188" y="122" width="32" height="32" fill="#EFE7D5" stroke="#2A2A2A" stroke-width="0.7"/>
<rect x="220" y="122" width="32" height="32" fill="#EFE7D5" stroke="#2A2A2A" stroke-width="0.7"/>
<rect x="60" y="154" width="32" height="32" fill="#EFE7D5" stroke="#2A2A2A" stroke-width="0.7"/>
<rect x="92" y="154" width="32" height="32" fill="#EFE7D5" stroke="#2A2A2A" stroke-width="0.7"/>
<rect x="124" y="154" width="32" height="32" fill="#3a3a44" stroke="#2A2A2A" stroke-width="0.7"/>
<rect x="156" y="154" width="32" height="32" fill="#3a3a44" stroke="#2A2A2A" stroke-width="0.7"/>
<rect x="188" y="154" width="32" height="32" fill="#EFE7D5" stroke="#2A2A2A" stroke-width="0.7"/>
<rect x="220" y="154" width="32" height="32" fill="#EFE7D5" stroke="#2A2A2A" stroke-width="0.7"/>
<rect x="60" y="186" width="32" height="32" fill="#EFE7D5" stroke="#2A2A2A" stroke-width="0.7"/>
<rect x="92" y="186" width="32" height="32" fill="#EFE7D5" stroke="#2A2A2A" stroke-width="0.7"/>
<rect x="124" y="186" width="32" height="32" fill="#3a3a44" stroke="#2A2A2A" stroke-width="0.7"/>
<rect x="156" y="186" width="32" height="32" fill="#3a3a44" stroke="#2A2A2A" stroke-width="0.7"/>
<rect x="188" y="186" width="32" height="32" fill="#EFE7D5" stroke="#2A2A2A" stroke-width="0.7"/>
<rect x="220" y="186" width="32" height="32" fill="#EFE7D5" stroke="#2A2A2A" stroke-width="0.7"/>
<rect x="60" y="218" width="32" height="32" fill="#EFE7D5" stroke="#2A2A2A" stroke-width="0.7"/>
<rect x="92" y="218" width="32" height="32" fill="#EFE7D5" stroke="#2A2A2A" stroke-width="0.7"/>
<rect x="124" y="218" width="32" height="32" fill="#3a3a44" stroke="#2A2A2A" stroke-width="0.7"/>
<rect x="156" y="218" width="32" height="32" fill="#3a3a44" stroke="#2A2A2A" stroke-width="0.7"/>
<rect x="188" y="218" width="32" height="32" fill="#EFE7D5" stroke="#2A2A2A" stroke-width="0.7"/>
<rect x="220" y="218" width="32" height="32" fill="#EFE7D5" stroke="#2A2A2A" stroke-width="0.7"/>
<rect x="60" y="250" width="32" height="32" fill="#EFE7D5" stroke="#2A2A2A" stroke-width="0.7"/>
<rect x="92" y="250" width="32" height="32" fill="#EFE7D5" stroke="#2A2A2A" stroke-width="0.7"/>
<rect x="124" y="250" width="32" height="32" fill="#3a3a44" stroke="#2A2A2A" stroke-width="0.7"/>
<rect x="156" y="250" width="32" height="32" fill="#3a3a44" stroke="#2A2A2A" stroke-width="0.7"/>
<rect x="188" y="250" width="32" height="32" fill="#EFE7D5" stroke="#2A2A2A" stroke-width="0.7"/>
<rect x="220" y="250" width="32" height="32" fill="#EFE7D5" stroke="#2A2A2A" stroke-width="0.7"/>
<text x="156" y="312" text-anchor="middle" font-size="11.5" fill="#7A7268">입력 이미지(세로 모서리)</text>
<rect x="60" y="90" width="96" height="96" fill="none" stroke="#B5651D" stroke-width="3"/>
<text x="108" y="84" text-anchor="middle" font-size="11" fill="#B5651D" font-weight="bold">3×3 필터</text>
<line x1="270" y1="186" x2="340" y2="186" stroke="#2A2A2A" stroke-width="2" marker-end="url(#ar)"/>
<text x="305" y="176" text-anchor="middle" font-size="11" fill="#7A7268">미끄러뜨림</text>
<rect x="360" y="122" width="32" height="32" fill="#EFE7D5" stroke="#3B6EA5" stroke-width="0.7"/>
<rect x="392" y="122" width="32" height="32" fill="#3a3a44" stroke="#3B6EA5" stroke-width="0.7"/>
<rect x="424" y="122" width="32" height="32" fill="#EFE7D5" stroke="#3B6EA5" stroke-width="0.7"/>
<rect x="456" y="122" width="32" height="32" fill="#EFE7D5" stroke="#3B6EA5" stroke-width="0.7"/>
<rect x="360" y="154" width="32" height="32" fill="#EFE7D5" stroke="#3B6EA5" stroke-width="0.7"/>
<rect x="392" y="154" width="32" height="32" fill="#3a3a44" stroke="#3B6EA5" stroke-width="0.7"/>
<rect x="424" y="154" width="32" height="32" fill="#EFE7D5" stroke="#3B6EA5" stroke-width="0.7"/>
<rect x="456" y="154" width="32" height="32" fill="#EFE7D5" stroke="#3B6EA5" stroke-width="0.7"/>
<rect x="360" y="186" width="32" height="32" fill="#EFE7D5" stroke="#3B6EA5" stroke-width="0.7"/>
<rect x="392" y="186" width="32" height="32" fill="#3a3a44" stroke="#3B6EA5" stroke-width="0.7"/>
<rect x="424" y="186" width="32" height="32" fill="#EFE7D5" stroke="#3B6EA5" stroke-width="0.7"/>
<rect x="456" y="186" width="32" height="32" fill="#EFE7D5" stroke="#3B6EA5" stroke-width="0.7"/>
<rect x="360" y="218" width="32" height="32" fill="#EFE7D5" stroke="#3B6EA5" stroke-width="0.7"/>
<rect x="392" y="218" width="32" height="32" fill="#3a3a44" stroke="#3B6EA5" stroke-width="0.7"/>
<rect x="424" y="218" width="32" height="32" fill="#EFE7D5" stroke="#3B6EA5" stroke-width="0.7"/>
<rect x="456" y="218" width="32" height="32" fill="#EFE7D5" stroke="#3B6EA5" stroke-width="0.7"/>
<text x="424" y="270" text-anchor="middle" font-size="11.5" fill="#7A7268">특징 맵(모서리 위치가 켜짐)</text>
<rect x="540" y="96" width="190" height="150" rx="8" fill="#FFFFFF" stroke="#4E7A51" stroke-width="1.5"/>
<text x="635" y="116" text-anchor="middle" font-size="11.5" fill="#4E7A51" font-weight="bold">학습된 첫 층 필터</text>
<rect x="543" y="128" width="44" height="44" fill="#EFE7D5" stroke="#7A7268" stroke-width="0.8"/>
<line x1="545" y1="150" x2="585" y2="150" stroke="#2A2A2A" stroke-width="6" stroke-linecap="round"/>
<rect x="601" y="128" width="44" height="44" fill="#EFE7D5" stroke="#7A7268" stroke-width="0.8"/>
<line x1="609" y1="136" x2="637" y2="164" stroke="#2A2A2A" stroke-width="6" stroke-linecap="round"/>
<rect x="659" y="128" width="44" height="44" fill="#EFE7D5" stroke="#7A7268" stroke-width="0.8"/>
<line x1="681" y1="130" x2="681" y2="170" stroke="#2A2A2A" stroke-width="6" stroke-linecap="round"/>
<rect x="543" y="180" width="44" height="44" fill="#EFE7D5" stroke="#7A7268" stroke-width="0.8"/>
<line x1="579" y1="188" x2="551" y2="216" stroke="#2A2A2A" stroke-width="6" stroke-linecap="round"/>
<rect x="601" y="180" width="44" height="44" fill="#EFE7D5" stroke="#7A7268" stroke-width="0.8"/>
<line x1="604" y1="195" x2="642" y2="209" stroke="#2A2A2A" stroke-width="6" stroke-linecap="round"/>
<rect x="659" y="180" width="44" height="44" fill="#EFE7D5" stroke="#7A7268" stroke-width="0.8"/>
<line x1="700" y1="195" x2="662" y2="209" stroke="#2A2A2A" stroke-width="6" stroke-linecap="round"/>
<text x="635" y="238" text-anchor="middle" font-size="10.5" fill="#7A7268">제각각 방향의 모서리</text>
<text x="380.0" y="346" text-anchor="middle" font-size="11.5" fill="#7A7268">놀랍게도 — 스스로 학습한 필터가 사람이 손으로 깎던 모서리 검출기, 그리고 고양이 시각세포와 닮았다</text>
</svg>