<svg xmlns="http://www.w3.org/2000/svg" viewBox="0 0 760 330" font-family="'Helvetica Neue', Arial, 'AppleSDGothicNeo', sans-serif">
<defs><marker id="ar" viewBox="0 0 10 10" refX="8.5" refY="5" markerWidth="7" markerHeight="7" orient="auto-start-reverse"><path d="M0,0 L10,5 L0,10 z" fill="#2A2A2A"/></marker></defs>
<rect x="2" y="2" width="756" height="326" rx="14" fill="#FBF7EF" stroke="#E7DFCB"/>
<text x="380.0" y="34" text-anchor="middle" font-size="14" fill="#7A7268" font-style="italic">단순한 규칙 몇 줄에서 '움직이는' 패턴이 태어난다 — 콘웨이의 생명 게임</text>
<rect x="60" y="80" width="26" height="26" fill="#FFFFFF" stroke="#E7DFCB" stroke-width="1"/>
<rect x="86" y="80" width="26" height="26" fill="#B5651D" stroke="#E7DFCB" stroke-width="1"/>
<rect x="112" y="80" width="26" height="26" fill="#FFFFFF" stroke="#E7DFCB" stroke-width="1"/>
<rect x="138" y="80" width="26" height="26" fill="#FFFFFF" stroke="#E7DFCB" stroke-width="1"/>
<rect x="164" y="80" width="26" height="26" fill="#FFFFFF" stroke="#E7DFCB" stroke-width="1"/>
<rect x="190" y="80" width="26" height="26" fill="#FFFFFF" stroke="#E7DFCB" stroke-width="1"/>
<rect x="216" y="80" width="26" height="26" fill="#FFFFFF" stroke="#E7DFCB" stroke-width="1"/>
<rect x="60" y="106" width="26" height="26" fill="#FFFFFF" stroke="#E7DFCB" stroke-width="1"/>
<rect x="86" y="106" width="26" height="26" fill="#FFFFFF" stroke="#E7DFCB" stroke-width="1"/>
<rect x="112" y="106" width="26" height="26" fill="#B5651D" stroke="#E7DFCB" stroke-width="1"/>
<rect x="138" y="106" width="26" height="26" fill="#FFFFFF" stroke="#E7DFCB" stroke-width="1"/>
<rect x="164" y="106" width="26" height="26" fill="#FFFFFF" stroke="#E7DFCB" stroke-width="1"/>
<rect x="190" y="106" width="26" height="26" fill="#FFFFFF" stroke="#E7DFCB" stroke-width="1"/>
<rect x="216" y="106" width="26" height="26" fill="#FFFFFF" stroke="#E7DFCB" stroke-width="1"/>
<rect x="60" y="132" width="26" height="26" fill="#B5651D" stroke="#E7DFCB" stroke-width="1"/>
<rect x="86" y="132" width="26" height="26" fill="#B5651D" stroke="#E7DFCB" stroke-width="1"/>
<rect x="112" y="132" width="26" height="26" fill="#B5651D" stroke="#E7DFCB" stroke-width="1"/>
<rect x="138" y="132" width="26" height="26" fill="#FFFFFF" stroke="#E7DFCB" stroke-width="1"/>
<rect x="164" y="132" width="26" height="26" fill="#FFFFFF" stroke="#E7DFCB" stroke-width="1"/>
<rect x="190" y="132" width="26" height="26" fill="#FFFFFF" stroke="#E7DFCB" stroke-width="1"/>
<rect x="216" y="132" width="26" height="26" fill="#FFFFFF" stroke="#E7DFCB" stroke-width="1"/>
<rect x="60" y="158" width="26" height="26" fill="#FFFFFF" stroke="#E7DFCB" stroke-width="1"/>
<rect x="86" y="158" width="26" height="26" fill="#FFFFFF" stroke="#E7DFCB" stroke-width="1"/>
<rect x="112" y="158" width="26" height="26" fill="#FFFFFF" stroke="#E7DFCB" stroke-width="1"/>
<rect x="138" y="158" width="26" height="26" fill="#FFFFFF" stroke="#E7DFCB" stroke-width="1"/>
<rect x="164" y="158" width="26" height="26" fill="#FFFFFF" stroke="#E7DFCB" stroke-width="1"/>
<rect x="190" y="158" width="26" height="26" fill="#FFFFFF" stroke="#E7DFCB" stroke-width="1"/>
<rect x="216" y="158" width="26" height="26" fill="#FFFFFF" stroke="#E7DFCB" stroke-width="1"/>
<rect x="60" y="184" width="26" height="26" fill="#FFFFFF" stroke="#E7DFCB" stroke-width="1"/>
<rect x="86" y="184" width="26" height="26" fill="#FFFFFF" stroke="#E7DFCB" stroke-width="1"/>
<rect x="112" y="184" width="26" height="26" fill="#FFFFFF" stroke="#E7DFCB" stroke-width="1"/>
<rect x="138" y="184" width="26" height="26" fill="#FFFFFF" stroke="#E7DFCB" stroke-width="1"/>
<rect x="164" y="184" width="26" height="26" fill="#FFFFFF" stroke="#E7DFCB" stroke-width="1"/>
<rect x="190" y="184" width="26" height="26" fill="#FFFFFF" stroke="#E7DFCB" stroke-width="1"/>
<rect x="216" y="184" width="26" height="26" fill="#FFFFFF" stroke="#E7DFCB" stroke-width="1"/>
<rect x="60" y="210" width="26" height="26" fill="#FFFFFF" stroke="#E7DFCB" stroke-width="1"/>
<rect x="86" y="210" width="26" height="26" fill="#FFFFFF" stroke="#E7DFCB" stroke-width="1"/>
<rect x="112" y="210" width="26" height="26" fill="#FFFFFF" stroke="#E7DFCB" stroke-width="1"/>
<rect x="138" y="210" width="26" height="26" fill="#FFFFFF" stroke="#E7DFCB" stroke-width="1"/>
<rect x="164" y="210" width="26" height="26" fill="#FFFFFF" stroke="#E7DFCB" stroke-width="1"/>
<rect x="190" y="210" width="26" height="26" fill="#FFFFFF" stroke="#E7DFCB" stroke-width="1"/>
<rect x="216" y="210" width="26" height="26" fill="#FFFFFF" stroke="#E7DFCB" stroke-width="1"/>
<rect x="60" y="236" width="26" height="26" fill="#FFFFFF" stroke="#E7DFCB" stroke-width="1"/>
<rect x="86" y="236" width="26" height="26" fill="#FFFFFF" stroke="#E7DFCB" stroke-width="1"/>
<rect x="112" y="236" width="26" height="26" fill="#FFFFFF" stroke="#E7DFCB" stroke-width="1"/>
<rect x="138" y="236" width="26" height="26" fill="#FFFFFF" stroke="#E7DFCB" stroke-width="1"/>
<rect x="164" y="236" width="26" height="26" fill="#FFFFFF" stroke="#E7DFCB" stroke-width="1"/>
<rect x="190" y="236" width="26" height="26" fill="#FFFFFF" stroke="#E7DFCB" stroke-width="1"/>
<rect x="216" y="236" width="26" height="26" fill="#FFFFFF" stroke="#E7DFCB" stroke-width="1"/>
<text x="151" y="290" text-anchor="middle" font-size="12" fill="#2A2A2A" font-weight="bold">세대 1</text>
<rect x="300" y="80" width="26" height="26" fill="#FFFFFF" stroke="#E7DFCB" stroke-width="1"/>
<rect x="326" y="80" width="26" height="26" fill="#FFFFFF" stroke="#E7DFCB" stroke-width="1"/>
<rect x="352" y="80" width="26" height="26" fill="#FFFFFF" stroke="#E7DFCB" stroke-width="1"/>
<rect x="378" y="80" width="26" height="26" fill="#FFFFFF" stroke="#E7DFCB" stroke-width="1"/>
<rect x="404" y="80" width="26" height="26" fill="#FFFFFF" stroke="#E7DFCB" stroke-width="1"/>
<rect x="430" y="80" width="26" height="26" fill="#FFFFFF" stroke="#E7DFCB" stroke-width="1"/>
<rect x="456" y="80" width="26" height="26" fill="#FFFFFF" stroke="#E7DFCB" stroke-width="1"/>
<rect x="300" y="106" width="26" height="26" fill="#B5651D" stroke="#E7DFCB" stroke-width="1"/>
<rect x="326" y="106" width="26" height="26" fill="#FFFFFF" stroke="#E7DFCB" stroke-width="1"/>
<rect x="352" y="106" width="26" height="26" fill="#B5651D" stroke="#E7DFCB" stroke-width="1"/>
<rect x="378" y="106" width="26" height="26" fill="#FFFFFF" stroke="#E7DFCB" stroke-width="1"/>
<rect x="404" y="106" width="26" height="26" fill="#FFFFFF" stroke="#E7DFCB" stroke-width="1"/>
<rect x="430" y="106" width="26" height="26" fill="#FFFFFF" stroke="#E7DFCB" stroke-width="1"/>
<rect x="456" y="106" width="26" height="26" fill="#FFFFFF" stroke="#E7DFCB" stroke-width="1"/>
<rect x="300" y="132" width="26" height="26" fill="#FFFFFF" stroke="#E7DFCB" stroke-width="1"/>
<rect x="326" y="132" width="26" height="26" fill="#B5651D" stroke="#E7DFCB" stroke-width="1"/>
<rect x="352" y="132" width="26" height="26" fill="#B5651D" stroke="#E7DFCB" stroke-width="1"/>
<rect x="378" y="132" width="26" height="26" fill="#FFFFFF" stroke="#E7DFCB" stroke-width="1"/>
<rect x="404" y="132" width="26" height="26" fill="#FFFFFF" stroke="#E7DFCB" stroke-width="1"/>
<rect x="430" y="132" width="26" height="26" fill="#FFFFFF" stroke="#E7DFCB" stroke-width="1"/>
<rect x="456" y="132" width="26" height="26" fill="#FFFFFF" stroke="#E7DFCB" stroke-width="1"/>
<rect x="300" y="158" width="26" height="26" fill="#FFFFFF" stroke="#E7DFCB" stroke-width="1"/>
<rect x="326" y="158" width="26" height="26" fill="#B5651D" stroke="#E7DFCB" stroke-width="1"/>
<rect x="352" y="158" width="26" height="26" fill="#FFFFFF" stroke="#E7DFCB" stroke-width="1"/>
<rect x="378" y="158" width="26" height="26" fill="#FFFFFF" stroke="#E7DFCB" stroke-width="1"/>
<rect x="404" y="158" width="26" height="26" fill="#FFFFFF" stroke="#E7DFCB" stroke-width="1"/>
<rect x="430" y="158" width="26" height="26" fill="#FFFFFF" stroke="#E7DFCB" stroke-width="1"/>
<rect x="456" y="158" width="26" height="26" fill="#FFFFFF" stroke="#E7DFCB" stroke-width="1"/>
<rect x="300" y="184" width="26" height="26" fill="#FFFFFF" stroke="#E7DFCB" stroke-width="1"/>
<rect x="326" y="184" width="26" height="26" fill="#FFFFFF" stroke="#E7DFCB" stroke-width="1"/>
<rect x="352" y="184" width="26" height="26" fill="#FFFFFF" stroke="#E7DFCB" stroke-width="1"/>
<rect x="378" y="184" width="26" height="26" fill="#FFFFFF" stroke="#E7DFCB" stroke-width="1"/>
<rect x="404" y="184" width="26" height="26" fill="#FFFFFF" stroke="#E7DFCB" stroke-width="1"/>
<rect x="430" y="184" width="26" height="26" fill="#FFFFFF" stroke="#E7DFCB" stroke-width="1"/>
<rect x="456" y="184" width="26" height="26" fill="#FFFFFF" stroke="#E7DFCB" stroke-width="1"/>
<rect x="300" y="210" width="26" height="26" fill="#FFFFFF" stroke="#E7DFCB" stroke-width="1"/>
<rect x="326" y="210" width="26" height="26" fill="#FFFFFF" stroke="#E7DFCB" stroke-width="1"/>
<rect x="352" y="210" width="26" height="26" fill="#FFFFFF" stroke="#E7DFCB" stroke-width="1"/>
<rect x="378" y="210" width="26" height="26" fill="#FFFFFF" stroke="#E7DFCB" stroke-width="1"/>
<rect x="404" y="210" width="26" height="26" fill="#FFFFFF" stroke="#E7DFCB" stroke-width="1"/>
<rect x="430" y="210" width="26" height="26" fill="#FFFFFF" stroke="#E7DFCB" stroke-width="1"/>
<rect x="456" y="210" width="26" height="26" fill="#FFFFFF" stroke="#E7DFCB" stroke-width="1"/>
<rect x="300" y="236" width="26" height="26" fill="#FFFFFF" stroke="#E7DFCB" stroke-width="1"/>
<rect x="326" y="236" width="26" height="26" fill="#FFFFFF" stroke="#E7DFCB" stroke-width="1"/>
<rect x="352" y="236" width="26" height="26" fill="#FFFFFF" stroke="#E7DFCB" stroke-width="1"/>
<rect x="378" y="236" width="26" height="26" fill="#FFFFFF" stroke="#E7DFCB" stroke-width="1"/>
<rect x="404" y="236" width="26" height="26" fill="#FFFFFF" stroke="#E7DFCB" stroke-width="1"/>
<rect x="430" y="236" width="26" height="26" fill="#FFFFFF" stroke="#E7DFCB" stroke-width="1"/>
<rect x="456" y="236" width="26" height="26" fill="#FFFFFF" stroke="#E7DFCB" stroke-width="1"/>
<text x="391" y="290" text-anchor="middle" font-size="12" fill="#2A2A2A" font-weight="bold">세대 2</text>
<rect x="540" y="80" width="26" height="26" fill="#FFFFFF" stroke="#E7DFCB" stroke-width="1"/>
<rect x="566" y="80" width="26" height="26" fill="#FFFFFF" stroke="#E7DFCB" stroke-width="1"/>
<rect x="592" y="80" width="26" height="26" fill="#FFFFFF" stroke="#E7DFCB" stroke-width="1"/>
<rect x="618" y="80" width="26" height="26" fill="#FFFFFF" stroke="#E7DFCB" stroke-width="1"/>
<rect x="644" y="80" width="26" height="26" fill="#FFFFFF" stroke="#E7DFCB" stroke-width="1"/>
<rect x="670" y="80" width="26" height="26" fill="#FFFFFF" stroke="#E7DFCB" stroke-width="1"/>
<rect x="696" y="80" width="26" height="26" fill="#FFFFFF" stroke="#E7DFCB" stroke-width="1"/>
<rect x="540" y="106" width="26" height="26" fill="#FFFFFF" stroke="#E7DFCB" stroke-width="1"/>
<rect x="566" y="106" width="26" height="26" fill="#FFFFFF" stroke="#E7DFCB" stroke-width="1"/>
<rect x="592" y="106" width="26" height="26" fill="#B5651D" stroke="#E7DFCB" stroke-width="1"/>
<rect x="618" y="106" width="26" height="26" fill="#FFFFFF" stroke="#E7DFCB" stroke-width="1"/>
<rect x="644" y="106" width="26" height="26" fill="#FFFFFF" stroke="#E7DFCB" stroke-width="1"/>
<rect x="670" y="106" width="26" height="26" fill="#FFFFFF" stroke="#E7DFCB" stroke-width="1"/>
<rect x="696" y="106" width="26" height="26" fill="#FFFFFF" stroke="#E7DFCB" stroke-width="1"/>
<rect x="540" y="132" width="26" height="26" fill="#B5651D" stroke="#E7DFCB" stroke-width="1"/>
<rect x="566" y="132" width="26" height="26" fill="#FFFFFF" stroke="#E7DFCB" stroke-width="1"/>
<rect x="592" y="132" width="26" height="26" fill="#B5651D" stroke="#E7DFCB" stroke-width="1"/>
<rect x="618" y="132" width="26" height="26" fill="#FFFFFF" stroke="#E7DFCB" stroke-width="1"/>
<rect x="644" y="132" width="26" height="26" fill="#FFFFFF" stroke="#E7DFCB" stroke-width="1"/>
<rect x="670" y="132" width="26" height="26" fill="#FFFFFF" stroke="#E7DFCB" stroke-width="1"/>
<rect x="696" y="132" width="26" height="26" fill="#FFFFFF" stroke="#E7DFCB" stroke-width="1"/>
<rect x="540" y="158" width="26" height="26" fill="#FFFFFF" stroke="#E7DFCB" stroke-width="1"/>
<rect x="566" y="158" width="26" height="26" fill="#B5651D" stroke="#E7DFCB" stroke-width="1"/>
<rect x="592" y="158" width="26" height="26" fill="#B5651D" stroke="#E7DFCB" stroke-width="1"/>
<rect x="618" y="158" width="26" height="26" fill="#FFFFFF" stroke="#E7DFCB" stroke-width="1"/>
<rect x="644" y="158" width="26" height="26" fill="#FFFFFF" stroke="#E7DFCB" stroke-width="1"/>
<rect x="670" y="158" width="26" height="26" fill="#FFFFFF" stroke="#E7DFCB" stroke-width="1"/>
<rect x="696" y="158" width="26" height="26" fill="#FFFFFF" stroke="#E7DFCB" stroke-width="1"/>
<rect x="540" y="184" width="26" height="26" fill="#FFFFFF" stroke="#E7DFCB" stroke-width="1"/>
<rect x="566" y="184" width="26" height="26" fill="#FFFFFF" stroke="#E7DFCB" stroke-width="1"/>
<rect x="592" y="184" width="26" height="26" fill="#FFFFFF" stroke="#E7DFCB" stroke-width="1"/>
<rect x="618" y="184" width="26" height="26" fill="#FFFFFF" stroke="#E7DFCB" stroke-width="1"/>
<rect x="644" y="184" width="26" height="26" fill="#FFFFFF" stroke="#E7DFCB" stroke-width="1"/>
<rect x="670" y="184" width="26" height="26" fill="#FFFFFF" stroke="#E7DFCB" stroke-width="1"/>
<rect x="696" y="184" width="26" height="26" fill="#FFFFFF" stroke="#E7DFCB" stroke-width="1"/>
<rect x="540" y="210" width="26" height="26" fill="#FFFFFF" stroke="#E7DFCB" stroke-width="1"/>
<rect x="566" y="210" width="26" height="26" fill="#FFFFFF" stroke="#E7DFCB" stroke-width="1"/>
<rect x="592" y="210" width="26" height="26" fill="#FFFFFF" stroke="#E7DFCB" stroke-width="1"/>
<rect x="618" y="210" width="26" height="26" fill="#FFFFFF" stroke="#E7DFCB" stroke-width="1"/>
<rect x="644" y="210" width="26" height="26" fill="#FFFFFF" stroke="#E7DFCB" stroke-width="1"/>
<rect x="670" y="210" width="26" height="26" fill="#FFFFFF" stroke="#E7DFCB" stroke-width="1"/>
<rect x="696" y="210" width="26" height="26" fill="#FFFFFF" stroke="#E7DFCB" stroke-width="1"/>
<rect x="540" y="236" width="26" height="26" fill="#FFFFFF" stroke="#E7DFCB" stroke-width="1"/>
<rect x="566" y="236" width="26" height="26" fill="#FFFFFF" stroke="#E7DFCB" stroke-width="1"/>
<rect x="592" y="236" width="26" height="26" fill="#FFFFFF" stroke="#E7DFCB" stroke-width="1"/>
<rect x="618" y="236" width="26" height="26" fill="#FFFFFF" stroke="#E7DFCB" stroke-width="1"/>
<rect x="644" y="236" width="26" height="26" fill="#FFFFFF" stroke="#E7DFCB" stroke-width="1"/>
<rect x="670" y="236" width="26" height="26" fill="#FFFFFF" stroke="#E7DFCB" stroke-width="1"/>
<rect x="696" y="236" width="26" height="26" fill="#FFFFFF" stroke="#E7DFCB" stroke-width="1"/>
<text x="631" y="290" text-anchor="middle" font-size="12" fill="#2A2A2A" font-weight="bold">세대 3</text>
<line x1="262" y1="170" x2="296" y2="170" stroke="#7A7268" stroke-width="2" marker-end="url(#ar)"/>
<line x1="502" y1="170" x2="536" y2="170" stroke="#7A7268" stroke-width="2" marker-end="url(#ar)"/>
<text x="380.0" y="318" text-anchor="middle" font-size="11.5" fill="#7A7268">규칙: 이웃이 적으면 죽고(고립), 많으면 죽고(과밀), 알맞으면 산다 — 그뿐인데 패턴이 기어간다</text>
</svg>