<svg xmlns="http://www.w3.org/2000/svg" viewBox="0 0 760 340" font-family="'Helvetica Neue', Arial, 'AppleSDGothicNeo', sans-serif">
<defs><marker id="ar" viewBox="0 0 10 10" refX="8.5" refY="5" markerWidth="7" markerHeight="7" orient="auto-start-reverse"><path d="M0,0 L10,5 L0,10 z" fill="#2A2A2A"/></marker></defs>
<rect x="2" y="2" width="756" height="336" rx="14" fill="#FBF7EF" stroke="#E7DFCB"/>
<text x="380.0" y="34" text-anchor="middle" font-size="14" fill="#7A7268" font-style="italic">나는 최선을, 상대는 나에게 최악을 둔다 — 값이 잎에서 위로 거슬러 오른다</text>
<line x1="190" y1="190" x2="110" y2="250" stroke="#7A7268" stroke-width="1.4"/>
<line x1="190" y1="190" x2="190" y2="250" stroke="#7A7268" stroke-width="1.4"/>
<line x1="190" y1="190" x2="270" y2="250" stroke="#7A7268" stroke-width="1.4"/>
<line x1="380" y1="100" x2="190" y2="150" stroke="#7A7268" stroke-width="1.4"/>
<line x1="380" y1="190" x2="330" y2="250" stroke="#7A7268" stroke-width="1.4"/>
<line x1="380" y1="190" x2="380" y2="250" stroke="#7A7268" stroke-width="1.4"/>
<line x1="380" y1="190" x2="430" y2="250" stroke="#7A7268" stroke-width="1.4"/>
<line x1="380" y1="100" x2="380" y2="150" stroke="#7A7268" stroke-width="1.4"/>
<line x1="570" y1="190" x2="500" y2="250" stroke="#7A7268" stroke-width="1.4"/>
<line x1="570" y1="190" x2="570" y2="250" stroke="#7A7268" stroke-width="1.4"/>
<line x1="570" y1="190" x2="640" y2="250" stroke="#7A7268" stroke-width="1.4"/>
<line x1="380" y1="100" x2="570" y2="150" stroke="#7A7268" stroke-width="1.4"/>
<circle cx="190" cy="170" r="20" fill="#FFFFFF" stroke="#3B6EA5" stroke-width="2"/>
<text x="190" y="175" text-anchor="middle" font-size="13" fill="#2A2A2A" font-weight="bold">2</text>
<circle cx="380" cy="170" r="20" fill="#FFFFFF" stroke="#3B6EA5" stroke-width="2"/>
<text x="380" y="175" text-anchor="middle" font-size="13" fill="#2A2A2A" font-weight="bold">1</text>
<circle cx="570" cy="170" r="20" fill="#FFFFFF" stroke="#3B6EA5" stroke-width="2"/>
<text x="570" y="175" text-anchor="middle" font-size="13" fill="#2A2A2A" font-weight="bold">4</text>
<circle cx="380" cy="80" r="22" fill="#FFFFFF" stroke="#B5651D" stroke-width="2"/>
<text x="380" y="85" text-anchor="middle" font-size="13" fill="#2A2A2A" font-weight="bold">4</text>
<rect x="94" y="254" width="32" height="32" rx="6" fill="#F3E7D6" stroke="#7A7268" stroke-width="1.2"/>
<text x="110" y="275" text-anchor="middle" font-size="13" fill="#2A2A2A">3</text>
<rect x="174" y="254" width="32" height="32" rx="6" fill="#F3E7D6" stroke="#7A7268" stroke-width="1.2"/>
<text x="190" y="275" text-anchor="middle" font-size="13" fill="#2A2A2A">5</text>
<rect x="254" y="254" width="32" height="32" rx="6" fill="#F3E7D6" stroke="#7A7268" stroke-width="1.2"/>
<text x="270" y="275" text-anchor="middle" font-size="13" fill="#2A2A2A">2</text>
<rect x="314" y="254" width="32" height="32" rx="6" fill="#F3E7D6" stroke="#7A7268" stroke-width="1.2"/>
<text x="330" y="275" text-anchor="middle" font-size="13" fill="#2A2A2A">9</text>
<rect x="364" y="254" width="32" height="32" rx="6" fill="#F3E7D6" stroke="#7A7268" stroke-width="1.2"/>
<text x="380" y="275" text-anchor="middle" font-size="13" fill="#2A2A2A">1</text>
<rect x="414" y="254" width="32" height="32" rx="6" fill="#F3E7D6" stroke="#7A7268" stroke-width="1.2"/>
<text x="430" y="275" text-anchor="middle" font-size="13" fill="#2A2A2A">8</text>
<rect x="484" y="254" width="32" height="32" rx="6" fill="#F3E7D6" stroke="#7A7268" stroke-width="1.2"/>
<text x="500" y="275" text-anchor="middle" font-size="13" fill="#2A2A2A">4</text>
<rect x="554" y="254" width="32" height="32" rx="6" fill="#F3E7D6" stroke="#7A7268" stroke-width="1.2"/>
<text x="570" y="275" text-anchor="middle" font-size="13" fill="#2A2A2A">6</text>
<rect x="624" y="254" width="32" height="32" rx="6" fill="#F3E7D6" stroke="#7A7268" stroke-width="1.2"/>
<text x="640" y="275" text-anchor="middle" font-size="13" fill="#2A2A2A">7</text>
<text x="414" y="84" font-size="12" fill="#B5651D" font-weight="bold">MAX (나: 큰 값 선택)</text>
<text x="120" y="150" font-size="12" fill="#3B6EA5" font-weight="bold">MIN (상대: 작은 값 선택)</text>
<text x="380.0" y="326" text-anchor="middle" font-size="11.5" fill="#7A7268">잎 = 판 평가 점수. MIN은 자식 중 최소를, MAX는 그 결과 중 최대를 고른다</text>
</svg>