<svg xmlns="http://www.w3.org/2000/svg" viewBox="0 0 760 330" font-family="'Helvetica Neue', Arial, 'AppleSDGothicNeo', sans-serif">
<defs><marker id="ar" viewBox="0 0 10 10" refX="8.5" refY="5" markerWidth="7" markerHeight="7" orient="auto-start-reverse"><path d="M0,0 L10,5 L0,10 z" fill="#2A2A2A"/></marker><marker id="arr" viewBox="0 0 10 10" refX="8.5" refY="5" markerWidth="7" markerHeight="7" orient="auto-start-reverse"><path d="M0,0 L10,5 L0,10 z" fill="#B5495B"/></marker></defs>
<rect x="2" y="2" width="756" height="326" rx="14" fill="#FBF7EF" stroke="#E7DFCB"/>
<text x="380.0" y="34" text-anchor="middle" font-size="14" fill="#7A7268" font-style="italic">말이 다른 두 시스템도, 같은 '개념 사전'에 연결되면 서로 통한다</text>
<rect x="60" y="70" width="150" height="38" rx="8" fill="#F3E7D6" stroke="#2A2A2A" stroke-width="1.6"/><text x="135" y="94" text-anchor="middle" font-size="13" fill="#2A2A2A" font-weight="bold">질병</text>
<rect x="60" y="140" width="150" height="38" rx="8" fill="#FFFFFF" stroke="#2A2A2A" stroke-width="1.6"/><text x="135" y="164" text-anchor="middle" font-size="12.5" fill="#2A2A2A" font-weight="bold">심장질환</text>
<rect x="60" y="210" width="150" height="38" rx="8" fill="#E9EEF5" stroke="#3B6EA5" stroke-width="1.6"/><text x="135" y="234" text-anchor="middle" font-size="12.5" fill="#2A2A2A" font-weight="bold">심근경색</text>
<line x1="135" y1="108" x2="135" y2="140" stroke="#7A7268" stroke-width="1.4"/>
<line x1="135" y1="178" x2="135" y2="210" stroke="#7A7268" stroke-width="1.4"/>
<text x="222" y="130" font-size="10.5" fill="#7A7268">상위-하위</text>
<text x="222" y="146" font-size="10.5" fill="#7A7268">(is-a)</text>
<rect x="470" y="110" width="220" height="46" rx="8" fill="#FFFFFF" stroke="#B5651D" stroke-width="1.6"/><text x="580" y="138" text-anchor="middle" font-size="12.5" fill="#2A2A2A" font-weight="bold">A 병원:  '심근경색'</text>
<rect x="470" y="200" width="220" height="46" rx="8" fill="#FFFFFF" stroke="#4E7A51" stroke-width="1.6"/><text x="580" y="228" text-anchor="middle" font-size="12.5" fill="#2A2A2A" font-weight="bold">B 병원:  'heart attack'</text>
<ellipse cx="350" cy="178" rx="70" ry="40" fill="#F3E7D6" stroke="#2A2A2A" stroke-width="1.6"/>
<text x="350" y="174" text-anchor="middle" font-size="12.5" fill="#2A2A2A" font-weight="bold">온톨로지</text>
<text x="350" y="192" text-anchor="middle" font-size="10" fill="#7A7268">공유 개념 사전</text>
<line x1="210" y1="229" x2="285" y2="190" stroke="#3B6EA5" stroke-width="1.5"/>
<line x1="420" y1="178" x2="470" y2="133" stroke="#B5651D" stroke-width="1.5" marker-end="url(#ar)"/>
<text x="450" y="150" font-size="10" fill="#B5651D">sameAs</text>
<line x1="420" y1="178" x2="470" y2="223" stroke="#4E7A51" stroke-width="1.5" marker-end="url(#ar)"/>
<text x="450" y="214" font-size="10" fill="#4E7A51">sameAs</text>
<text x="380.0" y="316" text-anchor="middle" font-size="11.5" fill="#7A7268">의미망이 '한 시스템 안'의 지식이라면, 온톨로지는 '여러 시스템이 함께 쓰는' 공식 약속이다</text>
</svg>